<svg xmlns="http://www.w3.org/2000/svg" viewBox="0 0 800 500" preserveAspectRatio="xMidYMid slice"><defs><linearGradient id="bg-38" x1="0" y1="0" x2="0.6" y2="1"><stop offset="0%" stop-color="#04201c"/><stop offset="55%" stop-color="#064e46"/><stop offset="100%" stop-color="#0b5e57"/></linearGradient><radialGradient id="glow-38" cx="30%" cy="80%" r="70%"><stop offset="0%" stop-color="#5eead4" stop-opacity="0.35"/><stop offset="100%" stop-color="#5eead4" stop-opacity="0"/></radialGradient></defs><rect width="800" height="500" fill="url(#bg-38)"/><rect width="800" height="500" fill="url(#glow-38)"/><path d="M281 399 A165 165 0 0 1 611 399" fill="none" stroke="#a7f3d0" stroke-width="2" opacity="0.45" transform="rotate(342 446 399)"/><path d="M127 64 A201 201 0 0 1 529 64" fill="none" stroke="#5eead4" stroke-width="2" opacity="0.33" transform="rotate(124 328 64)"/><path d="M-41 341 A83 83 0 0 1 125 341" fill="none" stroke="#a7f3d0" stroke-width="2" opacity="0.35" transform="rotate(319 42 341)"/><path d="M247 292 A96 96 0 0 1 439 292" fill="none" stroke="#5eead4" stroke-width="2" opacity="0.37" transform="rotate(164 343 292)"/><path d="M-121 337 A211 211 0 0 1 301 337" fill="none" stroke="#5eead4" stroke-width="2" opacity="0.29" transform="rotate(19 90 337)"/><path d="M432 67 A140 140 0 0 1 712 67" fill="none" stroke="#5eead4" stroke-width="2" opacity="0.40" transform="rotate(274 572 67)"/><path d="M605 442 A68 68 0 0 1 741 442" fill="none" stroke="#5eead4" stroke-width="2" opacity="0.22" transform="rotate(263 673 442)"/><path d="M259 366 A93 93 0 0 1 445 366" fill="none" stroke="#a7f3d0" stroke-width="2" opacity="0.28" transform="rotate(327 352 366)"/><path d="M494 202 A144 144 0 0 1 782 202" fill="none" stroke="#a7f3d0" stroke-width="2" opacity="0.25" transform="rotate(240 638 202)"/><path d="M535 89 A153 153 0 0 1 841 89" fill="none" stroke="#5eead4" stroke-width="2" opacity="0.26" transform="rotate(201 688 89)"/><path d="M-10 145 A204 204 0 0 1 398 145" fill="none" stroke="#5eead4" stroke-width="2" opacity="0.47" transform="rotate(343 194 145)"/><path d="M416 354 A132 132 0 0 1 680 354" fill="none" stroke="#5eead4" stroke-width="2" opacity="0.31" transform="rotate(164 548 354)"/><path d="M-32 460 A97 97 0 0 1 162 460" fill="none" stroke="#a7f3d0" stroke-width="2" opacity="0.41" transform="rotate(249 65 460)"/><path d="M520 354 A118 118 0 0 1 756 354" fill="none" stroke="#a7f3d0" stroke-width="2" opacity="0.27" transform="rotate(275 638 354)"/></svg>