<svg xmlns="http://www.w3.org/2000/svg" viewBox="0 0 800 500" preserveAspectRatio="xMidYMid slice"><defs><linearGradient id="bg-3" x1="0" y1="0" x2="0.6" y2="1"><stop offset="0%" stop-color="#04201c"/><stop offset="55%" stop-color="#064e46"/><stop offset="100%" stop-color="#0b5e57"/></linearGradient><radialGradient id="glow-3" cx="30%" cy="80%" r="70%"><stop offset="0%" stop-color="#5eead4" stop-opacity="0.35"/><stop offset="100%" stop-color="#5eead4" stop-opacity="0"/></radialGradient></defs><rect width="800" height="500" fill="url(#bg-3)"/><rect width="800" height="500" fill="url(#glow-3)"/><circle cx="437" cy="292" r="40" fill="none" stroke="#5eead4" stroke-width="1" opacity="0.70"/><circle cx="437" cy="292" r="80" fill="none" stroke="#5eead4" stroke-width="1" opacity="0.64"/><circle cx="437" cy="292" r="120" fill="none" stroke="#5eead4" stroke-width="1" opacity="0.58"/><circle cx="437" cy="292" r="160" fill="none" stroke="#5eead4" stroke-width="1" opacity="0.52"/><circle cx="437" cy="292" r="200" fill="none" stroke="#5eead4" stroke-width="1" opacity="0.46"/><circle cx="437" cy="292" r="240" fill="none" stroke="#5eead4" stroke-width="1" opacity="0.40"/><circle cx="437" cy="292" r="280" fill="none" stroke="#5eead4" stroke-width="1" opacity="0.34"/><circle cx="437" cy="292" r="320" fill="none" stroke="#5eead4" stroke-width="1" opacity="0.28"/><circle cx="437" cy="292" r="360" fill="none" stroke="#5eead4" stroke-width="1" opacity="0.22"/><circle cx="437" cy="292" r="276" fill="none" stroke="#a7f3d0" stroke-width="2" opacity="0.5" stroke-dasharray="30 74" transform="rotate(46 437 292)"/><circle cx="437" cy="292" r="118" fill="none" stroke="#a7f3d0" stroke-width="2" opacity="0.5" stroke-dasharray="39 32" transform="rotate(184 437 292)"/><circle cx="437" cy="292" r="120" fill="none" stroke="#a7f3d0" stroke-width="2" opacity="0.5" stroke-dasharray="14 34" transform="rotate(25 437 292)"/><circle cx="437" cy="292" r="298" fill="none" stroke="#a7f3d0" stroke-width="2" opacity="0.5" stroke-dasharray="30 41" transform="rotate(322 437 292)"/><circle cx="437" cy="292" r="154" fill="none" stroke="#a7f3d0" stroke-width="2" opacity="0.5" stroke-dasharray="12 38" transform="rotate(129 437 292)"/><circle cx="437" cy="292" r="18" fill="#5eead4" opacity="0.9"/><circle cx="437" cy="292" r="40" fill="#5eead4" opacity="0.15"/></svg>