<svg xmlns="http://www.w3.org/2000/svg" viewBox="0 0 800 500" preserveAspectRatio="xMidYMid slice"><defs><linearGradient id="bg-31" x1="0" y1="0" x2="0.6" y2="1"><stop offset="0%" stop-color="#04201c"/><stop offset="55%" stop-color="#064e46"/><stop offset="100%" stop-color="#0b5e57"/></linearGradient><radialGradient id="glow-31" cx="30%" cy="80%" r="70%"><stop offset="0%" stop-color="#5eead4" stop-opacity="0.35"/><stop offset="100%" stop-color="#5eead4" stop-opacity="0"/></radialGradient></defs><rect width="800" height="500" fill="url(#bg-31)"/><rect width="800" height="500" fill="url(#glow-31)"/><circle cx="425" cy="217" r="40" fill="none" stroke="#5eead4" stroke-width="1" opacity="0.70"/><circle cx="425" cy="217" r="80" fill="none" stroke="#5eead4" stroke-width="1" opacity="0.64"/><circle cx="425" cy="217" r="120" fill="none" stroke="#5eead4" stroke-width="1" opacity="0.58"/><circle cx="425" cy="217" r="160" fill="none" stroke="#5eead4" stroke-width="1" opacity="0.52"/><circle cx="425" cy="217" r="200" fill="none" stroke="#5eead4" stroke-width="1" opacity="0.46"/><circle cx="425" cy="217" r="240" fill="none" stroke="#5eead4" stroke-width="1" opacity="0.40"/><circle cx="425" cy="217" r="280" fill="none" stroke="#5eead4" stroke-width="1" opacity="0.34"/><circle cx="425" cy="217" r="320" fill="none" stroke="#5eead4" stroke-width="1" opacity="0.28"/><circle cx="425" cy="217" r="360" fill="none" stroke="#5eead4" stroke-width="1" opacity="0.22"/><circle cx="425" cy="217" r="152" fill="none" stroke="#a7f3d0" stroke-width="2" opacity="0.5" stroke-dasharray="34 28" transform="rotate(126 425 217)"/><circle cx="425" cy="217" r="107" fill="none" stroke="#a7f3d0" stroke-width="2" opacity="0.5" stroke-dasharray="29 36" transform="rotate(323 425 217)"/><circle cx="425" cy="217" r="155" fill="none" stroke="#a7f3d0" stroke-width="2" opacity="0.5" stroke-dasharray="33 60" transform="rotate(338 425 217)"/><circle cx="425" cy="217" r="244" fill="none" stroke="#a7f3d0" stroke-width="2" opacity="0.5" stroke-dasharray="18 58" transform="rotate(89 425 217)"/><circle cx="425" cy="217" r="221" fill="none" stroke="#a7f3d0" stroke-width="2" opacity="0.5" stroke-dasharray="24 73" transform="rotate(217 425 217)"/><circle cx="425" cy="217" r="18" fill="#5eead4" opacity="0.9"/><circle cx="425" cy="217" r="40" fill="#5eead4" opacity="0.15"/></svg>