<svg xmlns="http://www.w3.org/2000/svg" viewBox="0 0 800 500" preserveAspectRatio="xMidYMid slice"><defs><linearGradient id="bg-39" x1="0" y1="0" x2="0.6" y2="1"><stop offset="0%" stop-color="#04201c"/><stop offset="55%" stop-color="#064e46"/><stop offset="100%" stop-color="#0b5e57"/></linearGradient><radialGradient id="glow-39" cx="30%" cy="80%" r="70%"><stop offset="0%" stop-color="#5eead4" stop-opacity="0.35"/><stop offset="100%" stop-color="#5eead4" stop-opacity="0"/></radialGradient></defs><rect width="800" height="500" fill="url(#bg-39)"/><rect width="800" height="500" fill="url(#glow-39)"/><path d="M694 206 C462 102 324 299 299 380" fill="none" stroke="#5eead4" stroke-width="1" opacity="0.22"/><path d="M361 381 C419 230 532 422 38 9" fill="none" stroke="#ffffff" stroke-width="0.8" opacity="0.36"/><path d="M483 205 C779 41 701 128 227 182" fill="none" stroke="#5eead4" stroke-width="0.8" opacity="0.40"/><path d="M560 487 C269 258 686 344 248 138" fill="none" stroke="#ffffff" stroke-width="0.8" opacity="0.30"/><path d="M755 248 C217 373 739 316 400 422" fill="none" stroke="#5eead4" stroke-width="1" opacity="0.26"/><path d="M199 1 C466 63 675 87 754 19" fill="none" stroke="#ffffff" stroke-width="1" opacity="0.49"/><path d="M348 224 C395 466 630 346 271 479" fill="none" stroke="#5eead4" stroke-width="2" opacity="0.43"/><path d="M415 154 C572 62 475 183 176 388" fill="none" stroke="#ffffff" stroke-width="1.5" opacity="0.31"/><path d="M755 47 C671 258 68 367 470 477" fill="none" stroke="#a7f3d0" stroke-width="1" opacity="0.34"/><path d="M494 71 C700 427 80 152 26 426" fill="none" stroke="#ffffff" stroke-width="1" opacity="0.54"/><path d="M31 156 C78 358 511 453 704 336" fill="none" stroke="#a7f3d0" stroke-width="1.5" opacity="0.19"/><path d="M45 7 C704 329 97 304 682 273" fill="none" stroke="#ffffff" stroke-width="2" opacity="0.17"/></svg>