<svg xmlns="http://www.w3.org/2000/svg" viewBox="0 0 800 500" preserveAspectRatio="xMidYMid slice"><defs><linearGradient id="bg-20" x1="0" y1="0" x2="0.6" y2="1"><stop offset="0%" stop-color="#04201c"/><stop offset="55%" stop-color="#064e46"/><stop offset="100%" stop-color="#0b5e57"/></linearGradient><radialGradient id="glow-20" cx="30%" cy="80%" r="70%"><stop offset="0%" stop-color="#5eead4" stop-opacity="0.35"/><stop offset="100%" stop-color="#5eead4" stop-opacity="0"/></radialGradient></defs><rect width="800" height="500" fill="url(#bg-20)"/><rect width="800" height="500" fill="url(#glow-20)"/><rect x="0" y="133" width="25" height="367" fill="#a7f3d0" opacity="0.21"/><rect x="44" y="122" width="39" height="378" fill="#a7f3d0" opacity="0.31"/><rect x="100" y="163" width="59" height="337" fill="#5eead4" opacity="0.23"/><rect x="169" y="330" width="34" height="170" fill="#a7f3d0" opacity="0.34"/><rect x="208" y="188" width="35" height="312" fill="#a7f3d0" opacity="0.32"/><rect x="247" y="303" width="31" height="197" fill="#a7f3d0" opacity="0.23"/><rect x="295" y="316" width="21" height="184" fill="#5eead4" opacity="0.31"/><rect x="325" y="102" width="28" height="398" fill="#a7f3d0" opacity="0.17"/><rect x="360" y="359" width="19" height="141" fill="#5eead4" opacity="0.33"/><rect x="389" y="215" width="26" height="285" fill="#a7f3d0" opacity="0.16"/><rect x="430" y="214" width="34" height="286" fill="#a7f3d0" opacity="0.19"/><rect x="472" y="380" width="53" height="120" fill="#a7f3d0" opacity="0.11"/><rect x="541" y="353" width="40" height="147" fill="#5eead4" opacity="0.34"/><rect x="592" y="291" width="30" height="209" fill="#5eead4" opacity="0.18"/><rect x="640" y="292" width="38" height="208" fill="#5eead4" opacity="0.17"/><rect x="697" y="408" width="53" height="92" fill="#a7f3d0" opacity="0.19"/><rect x="755" y="345" width="48" height="155" fill="#a7f3d0" opacity="0.33"/></svg>